<svg width="28" height="22" viewBox="0 0 28 22" fill="none" xmlns="http://www.w3.org/2000/svg">
<path d="M23.7396 1.85805C23.7319 1.8425 23.719 1.83032 23.7033 1.82368C21.8879 0.964724 19.9721 0.352223 18.0039 0.00150237C17.986 -0.00192585 17.9676 0.00054731 17.9511 0.00857012C17.9347 0.0165929 17.9211 0.0297569 17.9123 0.04619C17.6515 0.534458 17.4147 1.03599 17.2028 1.54887C15.0812 1.21675 12.9232 1.21675 10.8016 1.54887C10.5883 1.03469 10.3477 0.533031 10.0808 0.04619C10.0717 0.0301141 10.0581 0.0172532 10.0417 0.00928254C10.0254 0.00131184 10.0071 -0.00139929 9.98922 0.00150237C8.02082 0.351487 6.10493 0.964034 4.28977 1.82373C4.27423 1.83052 4.26112 1.84212 4.25225 1.85692C0.622281 7.4472 -0.372103 12.9 0.115708 18.2853C0.11708 18.2985 0.121013 18.3113 0.127271 18.3229C0.133529 18.3345 0.141985 18.3447 0.152137 18.3528C2.26583 19.9668 4.63003 21.1987 7.14383 21.9961C7.16153 22.0015 7.18044 22.0013 7.198 21.9954C7.21556 21.9894 7.23094 21.9781 7.24207 21.9629C7.78198 21.2053 8.26038 20.4031 8.67241 19.5644C8.67807 19.5529 8.6813 19.5402 8.68189 19.5274C8.68248 19.5145 8.68041 19.5016 8.67583 19.4896C8.67124 19.4776 8.66425 19.4667 8.65529 19.4577C8.64634 19.4487 8.63563 19.4417 8.62388 19.4373C7.86948 19.1396 7.13913 18.7808 6.43968 18.3641C6.42698 18.3564 6.41631 18.3456 6.40861 18.3327C6.40092 18.3197 6.39644 18.305 6.39557 18.2898C6.3947 18.2746 6.39746 18.2595 6.40362 18.2457C6.40978 18.2319 6.41914 18.2198 6.43087 18.2106C6.57805 18.0973 6.72268 17.9804 6.86464 17.8602C6.87709 17.8496 6.89215 17.8428 6.90814 17.8406C6.92412 17.8384 6.94039 17.8408 6.95511 17.8476C11.5375 20.0042 16.4985 20.0042 21.0266 17.8476C21.0413 17.8403 21.0578 17.8376 21.074 17.8396C21.0902 17.8416 21.1056 17.8484 21.1182 17.859C21.2603 17.9799 21.4053 18.0971 21.5531 18.2106C21.5649 18.2197 21.5743 18.2317 21.5806 18.2454C21.5868 18.2592 21.5897 18.2743 21.5889 18.2895C21.5882 18.3047 21.5838 18.3194 21.5762 18.3324C21.5686 18.3455 21.558 18.3563 21.5454 18.3641C20.8475 18.7843 20.1165 19.1429 19.3601 19.4362C19.3484 19.4408 19.3377 19.4479 19.3288 19.457C19.3199 19.4662 19.313 19.4772 19.3085 19.4893C19.304 19.5014 19.302 19.5143 19.3027 19.5273C19.3034 19.5402 19.3067 19.5528 19.3125 19.5644C19.7314 20.3984 20.2091 21.1996 20.7417 21.9615C20.7525 21.9772 20.7678 21.9889 20.7855 21.9951C20.8031 22.0012 20.8222 22.0015 20.84 21.9959C23.3583 21.2013 25.7266 19.9692 27.843 18.3528C27.8533 18.3451 27.8618 18.3352 27.8681 18.3237C27.8744 18.3123 27.8782 18.2996 27.8794 18.2865C28.4634 12.0605 26.9017 6.65235 23.7396 1.85805ZM9.35674 15.0062C7.97712 15.0062 6.84035 13.7006 6.84035 12.0972C6.84035 10.4937 7.95507 9.188 9.35674 9.188C10.7694 9.188 11.8951 10.5051 11.8731 12.0971C11.8731 13.7006 10.7583 15.0062 9.35674 15.0062ZM18.6606 15.0062C17.281 15.0062 16.1442 13.7006 16.1442 12.0972C16.1442 10.4937 17.259 9.188 18.6606 9.188C20.0733 9.188 21.199 10.5051 21.177 12.0971C21.177 13.7006 20.0733 15.0062 18.6606 15.0062Z" fill="white"/>
</svg>
