<svg width="28" height="24" viewBox="0 0 28 24" fill="none" xmlns="http://www.w3.org/2000/svg">
<path d="M27.9452 3.33185C26.8969 3.79339 25.7864 4.09805 24.6493 4.23602C25.8465 3.51647 26.7428 2.38807 27.1728 1.05918C26.0633 1.70668 24.8337 2.17802 23.5247 2.44052C22.6611 1.51702 21.5167 0.904508 20.2693 0.698101C19.0218 0.491695 17.7411 0.702942 16.6261 1.29904C15.511 1.89514 14.624 2.84273 14.1027 3.99466C13.5815 5.1466 13.4551 6.43841 13.7433 7.66952C8.97167 7.44435 4.74483 5.15185 1.91333 1.68918C1.39859 2.56397 1.13011 3.56171 1.13633 4.57668C1.13633 6.57168 2.15133 8.32518 3.689 9.35535C2.77767 9.32634 1.88647 9.07994 1.08967 8.63668V8.70668C1.08915 10.0325 1.54731 11.3176 2.38642 12.3441C3.22553 13.3705 4.39392 14.0751 5.69333 14.3382C4.85135 14.5638 3.96948 14.5977 3.11267 14.4373C3.48148 15.5784 4.19727 16.5758 5.16018 17.2904C6.12309 18.0051 7.28508 18.4013 8.484 18.4238C6.45345 20.0175 3.94622 20.8824 1.365 20.8797C0.91 20.8797 0.456167 20.8528 0 20.8015C2.63166 22.4866 5.6916 23.381 8.8165 23.3787C19.3783 23.3787 25.1475 14.6333 25.1475 7.06285C25.1475 6.81785 25.1475 6.57285 25.13 6.32785C26.257 5.51686 27.2291 4.50997 28 3.35518L27.9452 3.33185Z" fill="white"/>
</svg>
